<svg xmlns="http://www.w3.org/2000/svg" height="150" viewBox="-60 -40 840 220"><defs><style>@keyframes dash{0%{stroke-dashoffset:calc(var(--len) + 1px)}to{stroke-dashoffset:0}}@keyframes stroke-width{0%{stroke-width:3px}to{stroke-width:10px}}@keyframes fade{0%{opacity:0}to{opacity:1}}@keyframes dot{0%{r:0}to{r:var(--r)}}@keyframes glow{0%{filter:drop-shadow(0 0 2px rgba(255,255,255,.4)) drop-shadow(0 0 4px var(--color)) drop-shadow(0 0 26px var(--color))}to{filter:drop-shadow(0 0 1.8px rgba(255,255,255,.4)) drop-shadow(0 0 3.6px var(--color)) drop-shadow(0 0 23.5px var(--color))}}@keyframes flicker{0%,18%,22%,25%,53%,57%,to{opacity:1}20%,24%,55%{opacity:.87}}:root{--red:#f96a9c;--pink:#ff96ef;--blue:#7e8af3;--neon-animation:glow 0.11s ease-in-out 0s infinite alternate,
                flicker 2s infinite 2.8s alternate}.stroke{fill:none;stroke:var(--color);stroke-linecap:round;stroke-linejoin:round;stroke-width:3px;stroke-dasharray:calc(var(--len) + 1px);stroke-dashoffset:calc(var(--len) + 1px);animation:dash 1s cubic-bezier(.8,0,.2,1) var(--delay) forwards,stroke-width 1s cubic-bezier(.8,0,.2,1) calc(var(--delay) + .5s) forwards,fade .2s linear calc(var(--delay) + 0s) forwards,var(--neon-animation);--color:var(--pink)}.stroke.blue{--color:var(--blue)}.stroke.red{--color:var(--red)}</style></defs><g id="text"><path d="m3.3 105 39-102L81 105M17 69h50" class="stroke blue" style="--len:727px;--delay:0.5s"/><path d="M105.3 30v43.35a52.842 52.842 0 0 0 .588 8.163q.675 4.307 2.124 7.752a22.413 22.413 0 0 0 3.963 6.36 21.691 21.691 0 0 0 11.672 6.663 33.033 33.033 0 0 0 7.303.762 31.784 31.784 0 0 0 8.814-1.16 23.861 23.861 0 0 0 11.361-7.09q5.386-5.984 6.865-16.782a65.506 65.506 0 0 0 .56-8.868V30" class="stroke" style="--len:727px;--delay:0.7s"/><path d="M195.9 9v75.9a18.669 18.669 0 0 0 .767 5.453 15.532 15.532 0 0 0 2.608 5.047q3.375 4.35 8.7 6.15 4.985 1.685 10.429.478a23.303 23.303 0 0 0 .746-.178M180.3 30H215" class="stroke" style="--len:727px;--delay:0.9s"/><path d="M239.85 30v43.35a52.842 52.842 0 0 0 .588 8.163q.675 4.307 2.124 7.752a22.413 22.413 0 0 0 3.963 6.36 21.691 21.691 0 0 0 11.672 6.663 33.033 33.033 0 0 0 7.303.762 31.784 31.784 0 0 0 8.814-1.16 23.861 23.861 0 0 0 11.361-7.09q5.386-5.984 6.865-16.782a65.506 65.506 0 0 0 .56-8.868V30" class="stroke" style="--len:727px;--delay:1.1s"/><path d="M322.05 30v75-37.5a68.213 71.513 0 0 1 .51-8.819q1.387-11.132 6.54-17.656 7.05-8.925 19.2-8.925a27.125 30.425 0 0 1 4.533.325 20.73 20.73 0 0 1 13.542 7.55q6.375 7.875 6.375 22.725V105 67.5a63.567 70.167 0 0 1 .465-8.326q.599-4.998 1.967-9.083a21.913 28.513 0 0 1 4.843-9.066 16.855 23.455 20 0 1 9.757-7.247A19.453 26.053-80 0 1 399.3 32.1a24.146 30.746 0 0 1 3.489.192 14.972 21.572-40 0 1 14.661 7.683 17.605 24.205 0 0 1 3.592 5.854q1.616 3.677 2.363 8.271a47.029 53.629 0 0 1 .645 8.6V105" class="stroke blue" style="--len:727px;--delay:1.3s"/><path d="M458.25 30v75-38.4a63.575 66.875 0 0 1 .467-8.141q1.404-11.43 7.033-17.959a20.724 24.024 0 0 1 10.869-7.319 26.174 29.474 0 0 1 9.231-1.381q12 0 18.9 7.95 4.69 5.404 6.192 13.995a47.904 51.204 0 0 1 .708 8.805V105" class="stroke blue" style="--len:727px;--delay:1.5s"/><path d="m528.45 0 42 105L609 0" class="stroke red" style="--len:727px;--delay:1.7s"/><path d="M631.5 105V0l73.65 105V0" class="stroke red" style="--len:727px;--delay:1.9s"/></g></svg>