<svg xmlns="http://www.w3.org/2000/svg" viewBox="-60 0 658 78">
    <defs>
        <style>
            @keyframes dash {
                0% {
                    stroke-dashoffset: calc(var(--len) + 1px);
                }
                100% {
                    stroke-dashoffset: 0;
                }
            }
            @keyframes stroke-width {
                0% {
                    stroke-width: 3px;
                }
                100% {
                    stroke-width: 8px;
                }
            }
            @keyframes fade {
                0% {
                    opacity: 0;
                }
                100% {
                    opacity: 1;
                }
            }
            @keyframes dot {
                0% {
                    r: 0px;
                }
                100% {
                    r: var(--r);
                }
            }
            @keyframes glow {
                0% {
                    filter: drop-shadow(0 0 2px rgba(255, 255, 255, 0.4)) drop-shadow(0 0 8px var(--color)) drop-shadow(0 0 26px var(--color));
                }
                100% {
                    filter: drop-shadow(0 0 1.8px rgba(255, 255, 255, 0.4)) drop-shadow(0 0 7.2px var(--color)) drop-shadow(0 0 23.5px var(--color));
                }
            }
            @keyframes flicker {
                0%, 18%, 22%, 25%, 53%, 57%, 100% {
                    opacity: 1;
                }
                20%, 24%, 55% {
                    opacity: 0.87;
                }
            }


            :root {
                --red: #f96a9c;
                --pink: #ff96ef;
                --blue: #7e8af3;
                --neon-animation: glow 0.11s ease-in-out 0s infinite alternate,
                flicker 2s infinite 2.8s alternate;
            }

            .stroke {
                fill: none;
                stroke: var(--color);
                stroke-linecap: round;
                stroke-linejoin: round;
                stroke-width: 3px;

                stroke-dasharray: calc(var(--len) + 1px);
                stroke-dashoffset: calc(var(--len) + 1px);
                animation: dash 1s cubic-bezier(0.8, 0, 0.2, 1) var(--delay) forwards,
                    stroke-width 1s cubic-bezier(0.8, 0, 0.2, 1) calc(var(--delay) + 0.5s) forwards,
                    fade 0.2s linear calc(var(--delay) + 0s) forwards,
                    var(--neon-animation);
            }
            .dot {
                fill: var(--color);
                r: 0;
                animation: dot 1s cubic-bezier(0.8, 0, 0.2, 1) var(--delay) forwards,
                var(--neon-animation);
            }

            .stroke, .dot {
                --color: var(--pink);
            }
            .stroke.blue, .dot.blue {
                --color: var(--blue);
            }
            .stroke.red, .dot.red {
                --color: var(--red);
            }
            </style>
        </defs>
    <g id="text">
        <path d="M.338 73.81 33.538.01 66.838 73.81M12.838 53.11 54.438 53.11" class="stroke blue" style="--len:727px;--delay:0.5s"/>
        <path d="M82.438 28.71 82.438 53.31Q82.438 59.81 84.988 64.16 87.538 68.51 91.888 70.66 96.238 72.81 101.738 72.81 107.138 72.81 111.438 70.71 115.738 68.61 118.238 65.06 120.738 61.51 120.738 57.01L120.738 28.71" class="stroke" style="--len:727px;--delay:0.7s"/>
        <path d="M154.338 9.11 154.338 58.91Q154.338 64.71 157.938 68.36 161.538 72.01 167.238 72.01L169.438 72.01M140.438 28.71 169.538 28.71" class="stroke" style="--len:727px;--delay:0.9s"/>
        <path d="M190.038 28.71 190.038 53.31Q190.038 59.81 192.588 64.16 195.138 68.51 199.488 70.66 203.838 72.81 209.338 72.81 214.738 72.81 219.038 70.71 223.338 68.61 225.838 65.06 228.338 61.51 228.338 57.01L228.338 28.71" class="stroke" style="--len:727px;--delay:1.1s"/>
        <path d="M255.338 28.71 255.338 75.11 255.338 44.51Q255.338 37.51 259.738 33.11 264.138 28.71 271.038 28.71 277.538 28.71 281.588 33.61 285.638 38.51 285.638 46.21L285.638 75.11 285.638 44.51Q285.638 37.51 289.738 33.11 294.438 28.71 301.038 28.71 307.838 28.71 311.588 33.61 315.938 38.51 315.638 46.21L315.938 75.11" class="stroke blue" style="--len:727px;--delay:1.3s"/>
        <path d="M343.638 28.71L343.638 75.11 343.638 44.51Q343.638 40.01 346.138 36.41 348.638 32.81 352.938 30.76 357.238 28.71 362.638 28.71 368.138 28.71 372.488 30.86 376.838 33.01 379.388 37.31 381.938 41.61 381.938 48.21L381.938 75.11" class="stroke blue" style="--len:727px;--delay:1.5s"/>
        <path d="M399.338.01L431.138 78.11L463.338.01" class="stroke red" style="--len:727px;--delay:1.7s"/>
        <path d="M479.138 78.11 479.138.01 535.238 78.11 535.238.01" class="stroke red" style="--len:727px;--delay:1.9s"/>
    </g>
</svg>
