<svg xmlns="http://www.w3.org/2000/svg" width="1100" height="1100"><path fill="#fff" d="M531.5 49.5c61.893-4.562 111.727 17.438 149.5 66 36.701 56.002 40.034 114.002 10 174-11.407 19.912-26.24 36.912-44.5 51a13914.347 13914.347 0 0 0 113.5 76c.833 24.836-5.001 48.002-17.5 69.5-33.998.5-67.998.667-102 .5-4.607 67.649 12.56 128.983 51.5 184 19.275 26.617 41.442 50.784 66.5 72.5a1277.263 1277.263 0 0 0 47 38c37.816 36.447 61.982 80.614 72.5 132.5a285.422 285.422 0 0 1 6 75c-2.748 4.752-6.248 8.919-10.5 12.5-18.117 11.82-37.783 20.16-59 25a799.453 799.453 0 0 1-133 19 2470.31 2470.31 0 0 1-263 0 799.453 799.453 0 0 1-133-19c-21.217-4.84-40.883-13.18-59-25-4.252-3.581-7.752-7.748-10.5-12.5-3.192-69.288 16.141-131.288 58-186a310.966 310.966 0 0 1 20.5-21.5c29.947-22.601 58.114-47.435 84.5-74.5 22.959-25.231 41.959-53.231 57-84 18.933-43.351 26.766-88.685 23.5-136-34.002.167-68.002 0-102-.5-12.604-21.475-18.437-44.641-17.5-69.5a13914.347 13914.347 0 0 0 113.5-76c-50.498-40.698-71.331-93.365-62.5-158 9.213-46.973 33.713-83.473 73.5-109.5 20.862-12.341 43.196-20.175 67-23.5Z"/></svg>