<svg xmlns="http://www.w3.org/2000/svg" viewBox="8 8 80 80"><path fill="#fff" d="M53 10h7v1h-1v1h-1v1h-1v1h-1v1h-1v1h5v1h-7v-1h1v-1h1v-1h1v-1h1v-1h1v-1h-5m-43 1v32h2v2h2v2h2v2h2v2h2v2h2v2h2v2h2v2h8v-2h2V46h-2v2h-2v2h-4v-2h-2v-2h-2v-2h-2v-2h-2v-2h-2V12m24 0v27h-2v3h4v-6h2v-2h4V12m13 2h5v1h-1v1h-1v1h-1v1h3v1h-5v-1h1v-1h1v-1h1v-1h-3m8 5h1v5h1v-1h1v1h-1v1h1v-1h1v1h-1v3h-1v1h-2v1h-1v1h1v-1h2v-1h1v2h-1v1h-2v1h-1v-1h-1v1h-6v-1h-1v-1h-1v-2h1v1h2v1h3v1h1v-1h-1v-1h-3v-1h-4v-4h1v-2h1v-1h1v-1h1v2h1v1h1v-1h1v1h-1v1h2v-2h1v-2h1v-1h1m-13 4h2v1h-1v4h1v2h1v1h1v1h1v1h4v1h-6v-1h-6v-1h-1v-5h1v-1h1v-2h2m17 3h1v3h-1v1h-1v1h-1v2h-2v-2h2v-1h1v-1h1m1 0h1v3h-1v1h-2v-1h1v-1h1m-30 2v8h-8v32h8v8h32v-8h8v-8H70v8H54V44h16v8h16v-8h-8v-8h-1v1h-7v-1h-2v1h-8v-1"/></svg>
